<?xml version="1.0" encoding="UTF-8" standalone="no"?>
<!DOCTYPE svg PUBLIC "-//W3C//DTD SVG 1.0//EN" "http://www.w3.org/TR/2001/PR-SVG-20010719/DTD/svg10.dtd">
<svg width="56cm" height="26cm" viewBox="-24 128 1118 520" xmlns="http://www.w3.org/2000/svg" xmlns:xlink="http://www.w3.org/1999/xlink">
  <g>
    <rect style="fill: #ffffff" x="360" y="319" width="248.7" height="28"/>
    <rect style="fill: none; fill-opacity:0; stroke-width: 2; stroke: #000000" x="360" y="319" width="248.7" height="28"/>
    <text font-size="16" style="fill: #000000;text-anchor:middle;font-family:sans-serif;font-style:normal;font-weight:700" x="484.35" y="338">Nau</text>
    <rect style="fill: #ffffff" x="360" y="347" width="248.7" height="132"/>
    <rect style="fill: none; fill-opacity:0; stroke-width: 2; stroke: #000000" x="360" y="347" width="248.7" height="132"/>
    <text font-size="12.8" style="fill: #000000;text-anchor:start;font-family:monospace;font-style:normal;font-weight:normal" x="363" y="361">+Nau(l:int,a:int,x:int,y:int)</text>
    <text font-size="12.8" style="fill: #000000;text-anchor:start;font-family:monospace;font-style:normal;font-weight:normal" x="363" y="377">+propulsarEndavant(): void</text>
    <text font-size="12.8" style="fill: #000000;text-anchor:start;font-family:monospace;font-style:normal;font-weight:normal" x="363" y="393">+rotarEsquerra(): void</text>
    <text font-size="12.8" style="fill: #000000;text-anchor:start;font-family:monospace;font-style:normal;font-weight:normal" x="363" y="409">+rotarDreta(): void</text>
    <text font-size="12.8" style="fill: #000000;text-anchor:start;font-family:monospace;font-style:normal;font-weight:normal" x="363" y="425">+moure(): void</text>
    <text font-size="12.8" style="fill: #000000;text-anchor:start;font-family:monospace;font-style:normal;font-weight:normal" x="363" y="441">+dispararRaigLaser(): RaigLaser</text>
    <text font-size="12.8" style="fill: #000000;text-anchor:start;font-family:monospace;font-style:normal;font-weight:normal" x="363" y="457">+morir(): void</text>
    <text font-size="12.8" style="fill: #000000;text-anchor:start;font-family:monospace;font-style:normal;font-weight:normal" x="363" y="473">+teVides(): boolean const</text>
  </g>
  <g>
    <rect style="fill: #ffffff" x="349" y="599" width="271.8" height="28"/>
    <rect style="fill: none; fill-opacity:0; stroke-width: 2; stroke: #000000" x="349" y="599" width="271.8" height="28"/>
    <text font-size="16" style="fill: #000000;text-anchor:middle;font-family:sans-serif;font-style:normal;font-weight:700" x="484.9" y="618">NauEnemiga</text>
    <rect style="fill: #ffffff" x="349" y="627" width="271.8" height="20"/>
    <rect style="fill: none; fill-opacity:0; stroke-width: 2; stroke: #000000" x="349" y="627" width="271.8" height="20"/>
    <text font-size="12.8" style="fill: #000000;text-anchor:start;font-family:monospace;font-style:normal;font-weight:normal" x="352" y="641">+atacarNau(n:Nau,d:int): RaigLaser</text>
  </g>
  <g>
    <polyline style="fill: none; fill-opacity:0; stroke-width: 2; stroke: #000000" points="484.35,498.246 484.35,547.505 484.9,547.505 484.9,599 "/>
    <polygon style="fill: #ffffff" points="492.35,498.246 484.35,482.246 476.35,498.246 "/>
    <polygon style="fill: none; fill-opacity:0; stroke-width: 2; stroke: #000000" points="492.35,498.246 484.35,482.246 476.35,498.246 "/>
  </g>
  <g>
    <rect style="fill: #ffffff" x="760" y="324" width="333.4" height="28"/>
    <rect style="fill: none; fill-opacity:0; stroke-width: 2; stroke: #000000" x="760" y="324" width="333.4" height="28"/>
    <text font-size="16" style="fill: #000000;text-anchor:middle;font-family:sans-serif;font-style:normal;font-weight:700" x="926.7" y="343">Meteorit</text>
    <rect style="fill: #ffffff" x="760" y="352" width="333.4" height="20"/>
    <rect style="fill: none; fill-opacity:0; stroke-width: 2; stroke: #000000" x="760" y="352" width="333.4" height="20"/>
    <text font-size="12.8" style="fill: #000000;text-anchor:start;font-family:monospace;font-style:normal;font-weight:normal" x="763" y="366">+Meteorit(x:int,y:int,dx:int,dy:int,m:int)</text>
  </g>
  <g>
    <rect style="fill: #ffffff" x="711.7" y="395.25" width="341.1" height="28"/>
    <rect style="fill: none; fill-opacity:0; stroke-width: 2; stroke: #000000" x="711.7" y="395.25" width="341.1" height="28"/>
    <text font-size="16" style="fill: #000000;text-anchor:middle;font-family:sans-serif;font-style:normal;font-weight:700" x="882.25" y="414.25">RaigLaser</text>
    <rect style="fill: #ffffff" x="711.7" y="423.25" width="341.1" height="20"/>
    <rect style="fill: none; fill-opacity:0; stroke-width: 2; stroke: #000000" x="711.7" y="423.25" width="341.1" height="20"/>
    <text font-size="12.8" style="fill: #000000;text-anchor:start;font-family:monospace;font-style:normal;font-weight:normal" x="714.7" y="437.25">+RaigLaser(x:int,y:int,dx:int,dy:int,r:int)</text>
  </g>
  <g>
    <rect style="fill: #ffffff" x="372" y="129.75" width="225.6" height="28"/>
    <rect style="fill: none; fill-opacity:0; stroke-width: 2; stroke: #000000" x="372" y="129.75" width="225.6" height="28"/>
    <text font-size="16" style="fill: #000000;text-anchor:middle;font-family:sans-serif;font-style:normal;font-weight:700" x="484.8" y="148.75">Joc</text>
    <rect style="fill: #ffffff" x="372" y="157.75" width="225.6" height="36"/>
    <rect style="fill: none; fill-opacity:0; stroke-width: 2; stroke: #000000" x="372" y="157.75" width="225.6" height="36"/>
    <text font-size="12.8" style="fill: #000000;text-anchor:start;font-family:monospace;font-style:normal;font-weight:normal" x="375" y="171.75">+Joc(amplada:int,altura:int)</text>
    <text font-size="12.8" style="fill: #000000;text-anchor:start;font-family:monospace;font-style:normal;font-weight:normal" x="375" y="187.75">+jugar(): void</text>
  </g>
  <g>
    <rect style="fill: #ffffff" x="-22.3" y="351.25" width="279.5" height="28"/>
    <rect style="fill: none; fill-opacity:0; stroke-width: 2; stroke: #000000" x="-22.3" y="351.25" width="279.5" height="28"/>
    <text font-size="16" style="fill: #000000;text-anchor:middle;font-family:sans-serif;font-style:normal;font-weight:700" x="117.45" y="370.25">Dibuixador</text>
    <rect style="fill: #ffffff" x="-22.3" y="379.25" width="279.5" height="68"/>
    <rect style="fill: none; fill-opacity:0; stroke-width: 2; stroke: #000000" x="-22.3" y="379.25" width="279.5" height="68"/>
    <text font-size="12.8" style="fill: #000000;text-anchor:start;font-family:monospace;font-style:normal;font-weight:normal" x="-19.3" y="393.25">+Dibuixador(amplada:int,altura:int)</text>
    <text font-size="12.8" style="fill: #000000;text-anchor:start;font-family:monospace;font-style:normal;font-weight:normal" x="-19.3" y="409.25">+dibuixar(n:Nau): void</text>
    <text font-size="12.8" style="fill: #000000;text-anchor:start;font-family:monospace;font-style:normal;font-weight:normal" x="-19.3" y="425.25">+dibuixar(m:Meteorit): void</text>
    <text font-size="12.8" style="fill: #000000;text-anchor:start;font-family:monospace;font-style:normal;font-weight:normal" x="-19.3" y="441.25">+dibuixar(r:RaigLaser): void</text>
  </g>
  <g>
    <polyline style="fill: none; fill-opacity:0; stroke-width: 2; stroke-dasharray: 8; stroke: #000000" points="258.209,399.25 304.6,399.25 304.6,399 352.287,399 "/>
    <polyline style="fill: none; fill-opacity:0; stroke-width: 2; stroke: #000000" points="339.64,404 355.64,399 339.64,394 "/>
  </g>
  <g>
    <polyline style="fill: none; fill-opacity:0; stroke-width: 2; stroke-dasharray: 8; stroke: #000000" points="372,167.75 117.45,167.75 117.45,344.545 "/>
    <polyline style="fill: none; fill-opacity:0; stroke-width: 2; stroke: #000000" points="112.45,331.897 117.45,347.897 122.45,331.897 "/>
  </g>
  <g>
    <polyline style="fill: none; fill-opacity:0; stroke-width: 2; stroke-dasharray: 8; stroke: #000000" points="484.8,193.75 484.8,251.87 484.35,251.87 484.35,311.285 "/>
    <polyline style="fill: none; fill-opacity:0; stroke-width: 2; stroke: #000000" points="479.35,298.637 484.35,314.637 489.35,298.637 "/>
  </g>
  <g>
    <polyline style="fill: none; fill-opacity:0; stroke-width: 2; stroke-dasharray: 8; stroke: #000000" points="597.6,143.75 674.8,143.75 674.8,338 753.295,338 "/>
    <polyline style="fill: none; fill-opacity:0; stroke-width: 2; stroke: #000000" points="740.647,343 756.647,338 740.647,333 "/>
  </g>
  <g>
    <polyline style="fill: none; fill-opacity:0; stroke-width: 2; stroke-dasharray: 8; stroke: #000000" points="597.6,167.75 650.65,167.75 650.65,409.25 704.995,409.25 "/>
    <polyline style="fill: none; fill-opacity:0; stroke-width: 2; stroke: #000000" points="692.347,414.25 708.347,409.25 692.347,404.25 "/>
  </g>
</svg>
